# xmcd
#
# Track frame offsets:
#	150
#	15119
#	40447
#	64180
#	82092
#	99249
#	113943
#	130627
#	146925
#
# Disc length: 2154 seconds
#
# Revision: 1
# Processed by: cddbd v1.5.2PL0 Copyright (c) Steve Scherf et al.
# Submitted via: audiograbber 1.83.01
#
DISCID=74086809
DTITLE=Bad Cat Boogie - Bad Cat Boogie
DYEAR=2005
DGENRE=Blues Rock
TTITLE0=Bad Cat Boogie - Walk this Way
TTITLE1=Bad Cat Boogie - Slackjaw Jezebel
TTITLE2=Bad Cat Boogie - Talking Care od Buisness
TTITLE3=Bad Cat Boogie - Beast of Burdon
TTITLE4=Bad Cat Boogie - Bad Penny
TTITLE5=Bad Cat Boogie - Lie to me
TTITLE6=Bad Cat Boogie - Bullfrog Blues
TTITLE7=Bad Cat Boogie - Matchbox
TTITLE8=Bad Cat Boogie - Tush
EXTD=
EXTT0=
EXTT1=
EXTT2=
EXTT3=
EXTT4=
EXTT5=
EXTT6=
EXTT7=
EXTT8=
PLAYORDER=
